<svg width="179" height="60" viewBox="0 0 179 60" fill="none" xmlns="http://www.w3.org/2000/svg">
<path d="M69.59 22.19C70.9667 22.19 72.1683 22.47 73.195 23.03C74.245 23.59 75.05 24.325 75.61 25.235V22.47H81.595V41.965C81.595 43.7617 81.2333 45.3833 80.51 46.83C79.81 48.3 78.725 49.4667 77.255 50.33C75.8083 51.1933 74 51.625 71.83 51.625C68.9367 51.625 66.5917 50.9367 64.795 49.56C62.9983 48.2067 61.9717 46.3633 61.715 44.03H67.63C67.8167 44.7767 68.26 45.36 68.96 45.78C69.66 46.2233 70.5233 46.445 71.55 46.445C72.7867 46.445 73.7667 46.0833 74.49 45.36C75.2367 44.66 75.61 43.5283 75.61 41.965V39.2C75.0267 40.11 74.2217 40.8567 73.195 41.44C72.1683 42 70.9667 42.28 69.59 42.28C67.98 42.28 66.5217 41.8717 65.215 41.055C63.9083 40.215 62.87 39.0367 62.1 37.52C61.3533 35.98 60.98 34.2067 60.98 32.2C60.98 30.1933 61.3533 28.4317 62.1 26.915C62.87 25.3983 63.9083 24.2317 65.215 23.415C66.5217 22.5983 67.98 22.19 69.59 22.19ZM75.61 32.235C75.61 30.7417 75.19 29.5633 74.35 28.7C73.5333 27.8367 72.53 27.405 71.34 27.405C70.15 27.405 69.135 27.8367 68.295 28.7C67.4783 29.54 67.07 30.7067 67.07 32.2C67.07 33.6933 67.4783 34.8833 68.295 35.77C69.135 36.6333 70.15 37.065 71.34 37.065C72.53 37.065 73.5333 36.6333 74.35 35.77C75.19 34.9067 75.61 33.7283 75.61 32.235ZM101.885 31.92C101.885 32.48 101.85 33.0633 101.78 33.67H88.2349C88.3282 34.8833 88.7132 35.8167 89.3899 36.47C90.0899 37.1 90.9415 37.415 91.9449 37.415C93.4382 37.415 94.4765 36.785 95.0599 35.525H101.43C101.103 36.8083 100.508 37.9633 99.6449 38.99C98.8049 40.0167 97.7432 40.8217 96.4599 41.405C95.1765 41.9883 93.7415 42.28 92.1549 42.28C90.2415 42.28 88.5382 41.8717 87.0449 41.055C85.5515 40.2383 84.3849 39.0717 83.5449 37.555C82.7049 36.0383 82.2849 34.265 82.2849 32.235C82.2849 30.205 82.6932 28.4317 83.5099 26.915C84.3499 25.3983 85.5165 24.2317 87.0099 23.415C88.5032 22.5983 90.2182 22.19 92.1549 22.19C94.0449 22.19 95.7249 22.5867 97.1949 23.38C98.6649 24.1733 99.8082 25.305 100.625 26.775C101.465 28.245 101.885 29.96 101.885 31.92ZM95.7599 30.345C95.7599 29.3183 95.4099 28.5017 94.7099 27.895C94.0099 27.2883 93.1349 26.985 92.0849 26.985C91.0815 26.985 90.2299 27.2767 89.5299 27.86C88.8532 28.4433 88.4332 29.2717 88.2699 30.345H95.7599ZM125.657 17.43L116.942 42H109.452L100.737 17.43H107.107L113.197 35.98L119.322 17.43H125.657ZM144.119 31.92C144.119 32.48 144.084 33.0633 144.014 33.67H130.469C130.562 34.8833 130.947 35.8167 131.624 36.47C132.324 37.1 133.175 37.415 134.179 37.415C135.672 37.415 136.71 36.785 137.294 35.525H143.664C143.337 36.8083 142.742 37.9633 141.879 38.99C141.039 40.0167 139.977 40.8217 138.694 41.405C137.41 41.9883 135.975 42.28 134.389 42.28C132.475 42.28 130.772 41.8717 129.279 41.055C127.785 40.2383 126.619 39.0717 125.779 37.555C124.939 36.0383 124.519 34.265 124.519 32.235C124.519 30.205 124.927 28.4317 125.744 26.915C126.584 25.3983 127.75 24.2317 129.244 23.415C130.737 22.5983 132.452 22.19 134.389 22.19C136.279 22.19 137.959 22.5867 139.429 23.38C140.899 24.1733 142.042 25.305 142.859 26.775C143.699 28.245 144.119 29.96 144.119 31.92ZM137.994 30.345C137.994 29.3183 137.644 28.5017 136.944 27.895C136.244 27.2883 135.369 26.985 134.319 26.985C133.315 26.985 132.464 27.2767 131.764 27.86C131.087 28.4433 130.667 29.2717 130.504 30.345H137.994ZM156.726 22.26C159.013 22.26 160.833 23.0067 162.186 24.5C163.563 25.97 164.251 28 164.251 30.59V42H158.301V31.395C158.301 30.0883 157.963 29.0733 157.286 28.35C156.609 27.6267 155.699 27.265 154.556 27.265C153.413 27.265 152.503 27.6267 151.826 28.35C151.149 29.0733 150.811 30.0883 150.811 31.395V42H144.826V22.47H150.811V25.06C151.418 24.1967 152.234 23.52 153.261 23.03C154.288 22.5167 155.443 22.26 156.726 22.26ZM176.845 36.925V42H173.8C171.63 42 169.938 41.475 168.725 40.425C167.512 39.3517 166.905 37.6133 166.905 35.21V27.44H164.525V22.47H166.905V17.71H172.89V22.47H176.81V27.44H172.89V35.28C172.89 35.8633 173.03 36.2833 173.31 36.54C173.59 36.7967 174.057 36.925 174.71 36.925H176.845Z" fill="url(#paint0_linear_10_442)"/>
<path d="M22.5 13.125V46.875" stroke="#3E8CFF" stroke-width="3" stroke-linecap="round" stroke-linejoin="round"/>
<path d="M5.62497 39.1875C5.62258 38.7557 5.7712 38.3366 6.04511 38.0028C6.31902 37.669 6.701 37.4414 7.12497 37.3594C8.81134 37.0013 10.3236 36.0749 11.4087 34.7353C12.4937 33.3956 13.0858 31.724 13.0858 30C13.0858 28.276 12.4937 26.6044 11.4087 25.2647C10.3236 23.9251 8.81134 22.9987 7.12497 22.6406C6.701 22.5586 6.31902 22.331 6.04511 21.9972C5.7712 21.6634 5.62258 21.2443 5.62497 20.8125V15C5.62497 14.5027 5.82251 14.0258 6.17414 13.6742C6.52577 13.3225 7.00269 13.125 7.49997 13.125H52.5C52.9972 13.125 53.4742 13.3225 53.8258 13.6742C54.1774 14.0258 54.375 14.5027 54.375 15V20.8125C54.3774 21.2443 54.2287 21.6634 53.9548 21.9972C53.6809 22.331 53.2989 22.5586 52.875 22.6406C51.1886 22.9987 49.6763 23.9251 48.5913 25.2647C47.5062 26.6044 46.9141 28.276 46.9141 30C46.9141 31.724 47.5062 33.3956 48.5913 34.7353C49.6763 36.0749 51.1886 37.0013 52.875 37.3594C53.2989 37.4414 53.6809 37.669 53.9548 38.0028C54.2287 38.3366 54.3774 38.7557 54.375 39.1875V45C54.375 45.4973 54.1774 45.9742 53.8258 46.3258C53.4742 46.6775 52.9972 46.875 52.5 46.875H7.49997C7.00269 46.875 6.52577 46.6775 6.17414 46.3258C5.82251 45.9742 5.62497 45.4973 5.62497 45V39.1875Z" stroke="#3E8CFF" stroke-width="3" stroke-linecap="round" stroke-linejoin="round"/>
<defs>
<linearGradient id="paint0_linear_10_442" x1="119.5" y1="3" x2="119.5" y2="56" gradientUnits="userSpaceOnUse">
<stop stop-color="#6C5DD3"/>
<stop offset="1" stop-color="#3E8CFF"/>
</linearGradient>
</defs>
</svg>
