<svg width="327" height="105" viewBox="0 0 327 105" fill="none" xmlns="http://www.w3.org/2000/svg">
<path d="M109.18 37.38C111.933 37.38 114.337 37.94 116.39 39.06C118.49 40.18 120.1 41.65 121.22 43.47V37.94H133.19V76.93C133.19 80.5233 132.467 83.7667 131.02 86.66C129.62 89.6 127.45 91.9333 124.51 93.66C121.617 95.3867 118 96.25 113.66 96.25C107.873 96.25 103.183 94.8733 99.59 92.12C95.9967 89.4133 93.9433 85.7267 93.43 81.06H105.26C105.633 82.5533 106.52 83.72 107.92 84.56C109.32 85.4467 111.047 85.89 113.1 85.89C115.573 85.89 117.533 85.1667 118.98 83.72C120.473 82.32 121.22 80.0567 121.22 76.93V71.4C120.053 73.22 118.443 74.7133 116.39 75.88C114.337 77 111.933 77.56 109.18 77.56C105.96 77.56 103.043 76.7433 100.43 75.11C97.8167 73.43 95.74 71.0733 94.2 68.04C92.7067 64.96 91.96 61.4133 91.96 57.4C91.96 53.3867 92.7067 49.8633 94.2 46.83C95.74 43.7967 97.8167 41.4633 100.43 39.83C103.043 38.1967 105.96 37.38 109.18 37.38ZM121.22 57.47C121.22 54.4833 120.38 52.1267 118.7 50.4C117.067 48.6733 115.06 47.81 112.68 47.81C110.3 47.81 108.27 48.6733 106.59 50.4C104.957 52.08 104.14 54.4133 104.14 57.4C104.14 60.3867 104.957 62.7667 106.59 64.54C108.27 66.2667 110.3 67.13 112.68 67.13C115.06 67.13 117.067 66.2667 118.7 64.54C120.38 62.8133 121.22 60.4567 121.22 57.47ZM173.77 56.84C173.77 57.96 173.7 59.1267 173.56 60.34H146.47C146.656 62.7667 147.426 64.6333 148.78 65.94C150.18 67.2 151.883 67.83 153.89 67.83C156.876 67.83 158.953 66.57 160.12 64.05H172.86C172.206 66.6167 171.016 68.9267 169.29 70.98C167.61 73.0333 165.486 74.6433 162.92 75.81C160.353 76.9767 157.483 77.56 154.31 77.56C150.483 77.56 147.076 76.7433 144.09 75.11C141.103 73.4767 138.77 71.1433 137.09 68.11C135.41 65.0767 134.57 61.53 134.57 57.47C134.57 53.41 135.386 49.8633 137.02 46.83C138.7 43.7967 141.033 41.4633 144.02 39.83C147.006 38.1967 150.436 37.38 154.31 37.38C158.09 37.38 161.45 38.1733 164.39 39.76C167.33 41.3467 169.616 43.61 171.25 46.55C172.93 49.49 173.77 52.92 173.77 56.84ZM161.52 53.69C161.52 51.6367 160.82 50.0033 159.42 48.79C158.02 47.5767 156.27 46.97 154.17 46.97C152.163 46.97 150.46 47.5533 149.06 48.72C147.706 49.8867 146.866 51.5433 146.54 53.69H161.52ZM221.315 27.86L203.885 77H188.905L171.475 27.86H184.215L196.395 64.96L208.645 27.86H221.315ZM258.237 56.84C258.237 57.96 258.167 59.1267 258.027 60.34H230.937C231.124 62.7667 231.894 64.6333 233.247 65.94C234.647 67.2 236.351 67.83 238.357 67.83C241.344 67.83 243.421 66.57 244.587 64.05H257.327C256.674 66.6167 255.484 68.9267 253.757 70.98C252.077 73.0333 249.954 74.6433 247.387 75.81C244.821 76.9767 241.951 77.56 238.777 77.56C234.951 77.56 231.544 76.7433 228.557 75.11C225.571 73.4767 223.237 71.1433 221.557 68.11C219.877 65.0767 219.037 61.53 219.037 57.47C219.037 53.41 219.854 49.8633 221.487 46.83C223.167 43.7967 225.501 41.4633 228.487 39.83C231.474 38.1967 234.904 37.38 238.777 37.38C242.557 37.38 245.917 38.1733 248.857 39.76C251.797 41.3467 254.084 43.61 255.717 46.55C257.397 49.49 258.237 52.92 258.237 56.84ZM245.987 53.69C245.987 51.6367 245.287 50.0033 243.887 48.79C242.487 47.5767 240.737 46.97 238.637 46.97C236.631 46.97 234.927 47.5533 233.527 48.72C232.174 49.8867 231.334 51.5433 231.007 53.69H245.987ZM283.452 37.52C288.025 37.52 291.665 39.0133 294.372 42C297.125 44.94 298.502 49 298.502 54.18V77H286.602V55.79C286.602 53.1767 285.925 51.1467 284.572 49.7C283.219 48.2533 281.399 47.53 279.112 47.53C276.825 47.53 275.005 48.2533 273.652 49.7C272.299 51.1467 271.622 53.1767 271.622 55.79V77H259.652V37.94H271.622V43.12C272.835 41.3933 274.469 40.04 276.522 39.06C278.575 38.0333 280.885 37.52 283.452 37.52ZM323.69 66.85V77H317.6C313.26 77 309.877 75.95 307.45 73.85C305.023 71.7033 303.81 68.2267 303.81 63.42V47.88H299.05V37.94H303.81V28.42H315.78V37.94H323.62V47.88H315.78V63.56C315.78 64.7267 316.06 65.5667 316.62 66.08C317.18 66.5933 318.113 66.85 319.42 66.85H323.69Z" fill="white"/>
<path d="M33.75 26.6875V77.3125" stroke="white" stroke-width="4" stroke-linecap="round" stroke-linejoin="round"/>
<path d="M8.43754 65.7812C8.43396 65.1335 8.65688 64.5049 9.06775 64.0042C9.47862 63.5034 10.0516 63.162 10.6875 63.0391C13.2171 62.502 15.4855 61.1124 17.1131 59.1029C18.7407 57.0935 19.6288 54.586 19.6288 52C19.6288 49.414 18.7407 46.9065 17.1131 44.8971C15.4855 42.8876 13.2171 41.498 10.6875 40.9609C10.0516 40.838 9.47862 40.4966 9.06775 39.9958C8.65688 39.4951 8.43396 38.8665 8.43754 38.2188V29.5C8.43754 28.7541 8.73386 28.0387 9.2613 27.5113C9.78875 26.9838 10.5041 26.6875 11.25 26.6875H78.75C79.496 26.6875 80.2113 26.9838 80.7388 27.5113C81.2662 28.0387 81.5625 28.7541 81.5625 29.5V38.2188C81.5661 38.8665 81.3432 39.4951 80.9323 39.9958C80.5215 40.4966 79.9485 40.838 79.3125 40.9609C76.783 41.498 74.5146 42.8876 72.887 44.8971C71.2594 46.9065 70.3713 49.414 70.3713 52C70.3713 54.586 71.2594 57.0935 72.887 59.1029C74.5146 61.1124 76.783 62.502 79.3125 63.0391C79.9485 63.162 80.5215 63.5034 80.9323 64.0042C81.3432 64.5049 81.5661 65.1335 81.5625 65.7812V74.5C81.5625 75.2459 81.2662 75.9613 80.7388 76.4887C80.2113 77.0162 79.496 77.3125 78.75 77.3125H11.25C10.5041 77.3125 9.78875 77.0162 9.2613 76.4887C8.73386 75.9613 8.43754 75.2459 8.43754 74.5V65.7812Z" stroke="white" stroke-width="4" stroke-linecap="round" stroke-linejoin="round"/>
</svg>
